<svg xmlns="http://www.w3.org/2000/svg" width="520" height="680" viewBox="0 0 520 680">
<defs>
  <linearGradient id="gold" x1="0%" y1="0%" x2="100%" y2="100%">
    <stop offset="0%"  stop-color="#7A5A12"/>
    <stop offset="15%" stop-color="#C8961D"/>
    <stop offset="32%" stop-color="#F0C33D"/>
    <stop offset="48%" stop-color="#FFF3C4"/>
    <stop offset="60%" stop-color="#F5C518"/>
    <stop offset="78%" stop-color="#B8860B"/>
    <stop offset="100%" stop-color="#7A5A12"/>
  </linearGradient>
  <linearGradient id="silver" x1="0%" y1="0%" x2="100%" y2="100%">
    <stop offset="0%"  stop-color="#6E727A"/>
    <stop offset="15%" stop-color="#9AA0A8"/>
    <stop offset="32%" stop-color="#D7DBE0"/>
    <stop offset="48%" stop-color="#FFFFFF"/>
    <stop offset="60%" stop-color="#D7DBE0"/>
    <stop offset="78%" stop-color="#9AA0A8"/>
    <stop offset="100%" stop-color="#6E727A"/>
  </linearGradient>
  <linearGradient id="silverText" x1="0%" y1="0%" x2="0%" y2="100%">
    <stop offset="0%" stop-color="#F4F6F8"/>
    <stop offset="50%" stop-color="#C7CCD2"/>
    <stop offset="100%" stop-color="#8B9198"/>
  </linearGradient>
  <linearGradient id="goldText" x1="0%" y1="0%" x2="0%" y2="100%">
    <stop offset="0%" stop-color="#FCE9A8"/>
    <stop offset="50%" stop-color="#F0C33D"/>
    <stop offset="100%" stop-color="#B8860B"/>
  </linearGradient>
  <radialGradient id="sparkle" cx="50%" cy="35%" r="70%">
    <stop offset="0%" stop-color="#FFFFFF"/>
    <stop offset="45%" stop-color="#E7EAEE"/>
    <stop offset="100%" stop-color="#9AA0A8"/>
  </radialGradient>
  <radialGradient id="creamVignette" cx="30%" cy="20%" r="80%">
    <stop offset="0%" stop-color="#FFFFFF" stop-opacity="0.9"/>
    <stop offset="100%" stop-color="#FFFFFF" stop-opacity="0"/>
  </radialGradient>
</defs>
<rect width="520" height="680" fill="#17181D"/>
    <g transform="translate(260.0,250) scale(1.5) translate(-100,-100)">
      <path d="M100 128 C 62 108, 42 62, 56 30 C 78 44, 98 88, 103 128 Z"
            fill="url(#gold)" stroke="url(#silver)" stroke-width="3" stroke-linejoin="round"/>
      <path d="M100 128 C 138 108, 158 62, 144 30 C 122 44, 102 88, 97 128 Z"
            fill="url(#gold)" stroke="url(#silver)" stroke-width="3" stroke-linejoin="round"/>
      <rect x="93.5" y="126" width="13" height="28" rx="6.5" fill="url(#gold)" stroke="url(#silver)" stroke-width="2"/>
      <circle cx="100" cy="165" r="10.5" fill="url(#sparkle)" stroke="url(#silver)" stroke-width="1.5"/>
      <circle cx="97" cy="161" r="2.6" fill="#FFFFFF" opacity="0.95"/>
    </g>
    <text x="260.0" y="470" font-family="Liberation Serif, DejaVu Serif, serif" font-weight="bold" font-size="72" fill="url(#goldText)" letter-spacing="-1" text-anchor="middle">Yehidat</text><text x="260.0" y="520" font-family="Liberation Serif, DejaVu Serif, serif" font-style="italic" font-size="22" fill="url(#silverText)" text-anchor="middle">Moments of surprise, delivered</text></svg>